<svg height="512px" viewBox="0 0 512 512.0292" width="512px" xmlns="http://www.w3.org/2000/svg"><path d="m176.015625 85.363281h-5.335937v-69.335937c0-6.527344-3.964844-12.394532-10.023438-14.847656-6.039062-2.453126-12.992188-.980469-17.496094 3.757812l-138.664062 144c-5.976563 6.183594-5.976563 16 0 22.183594l138.664062 144c4.523438 4.714844 11.5 6.210937 17.496094 3.757812 6.058594-2.453125 10.023438-8.320312 10.023438-14.851562v-69.332032h25.324218c67.113282 0 127.425782 37.292969 157.484375 97.410157l.277344.53125c2.773437 5.441406 8.339844 8.726562 14.25 8.726562 1.234375 0 2.496094-.148437 3.730469-.449219 7.210937-1.726562 12.269531-8.148437 12.269531-15.550781v-32c0-114.6875-93.3125-208-208-208zm0 0" fill="#2196f3"/><path d="m453.347656 512.027344h-394.667968c-32.359376 0-58.664063-26.300782-58.664063-58.664063v-181.335937c0-8.832032 7.167969-16 16-16s16 7.167968 16 16v181.335937c0 14.699219 11.96875 26.664063 26.664063 26.664063h394.667968c14.699219 0 26.667969-11.964844 26.667969-26.664063v-309.335937c0-14.695313-11.96875-26.664063-26.667969-26.664063h-74.667968c-8.832032 0-16-7.167969-16-16s7.167968-16 16-16h74.667968c32.363282 0 58.667969 26.304688 58.667969 58.664063v309.335937c0 32.363281-26.304687 58.664063-58.667969 58.664063zm0 0"/><path d="m368.015625 341.363281c-5.867187 0-11.394531-3.222656-14.1875-8.621093l-.277344-.511719c-30.121093-60.242188-90.433593-97.535157-157.527343-97.535157h-25.34375v69.332032c0 6.53125-3.964844 12.398437-10.023438 14.828125-5.996094 2.476562-12.972656.960937-17.496094-3.734375l-138.664062-144c-5.976563-6.207032-5.976563-16 0-22.207032l138.664062-144c4.503906-4.714843 11.4375-6.207031 17.496094-3.734374 6.058594 2.453124 10.023438 8.320312 10.023438 14.847656v69.335937h5.335937c114.6875 0 208 93.3125 208 208v32c0 7.378907-5.035156 13.78125-12.203125 15.550781-1.257812.300782-2.539062.449219-3.796875.449219zm-213.335937-138.667969h41.34375c60.226562 0 115.84375 25.410157 154.648437 68.738282-10.839844-86.742188-85.035156-154.070313-174.65625-154.070313h-21.335937c-8.832032 0-16-7.167969-16-16v-45.652343l-100.457032 104.316406 100.457032 104.320312v-45.652344c0-8.832031 7.167968-16 16-16zm0 0"/></svg>