<?xml version="1.0" encoding="iso-8859-1"?>
<!-- Generator: Adobe Illustrator 19.0.0, SVG Export Plug-In . SVG Version: 6.00 Build 0)  -->
<svg version="1.1" id="Capa_1" xmlns="http://www.w3.org/2000/svg" xmlns:xlink="http://www.w3.org/1999/xlink" x="0px" y="0px"
	 viewBox="0 0 512 512" style="enable-background:new 0 0 512 512;" xml:space="preserve">
<g>
	<g>
		<path d="M324.61,431.5c-4.142,0-7.5,3.358-7.5,7.5v14.5H15V101c0-4.142-3.358-7.5-7.5-7.5S0,96.858,0,101v360
			c0,4.142,3.358,7.5,7.5,7.5h317.11c4.142,0,7.5-3.358,7.5-7.5v-22C332.11,434.858,328.752,431.5,324.61,431.5z"/>
	</g>
</g>
<g>
	<g>
		<path d="M265.667,376.31H59.451c-4.142,0-7.5,3.358-7.5,7.5c0,4.142,3.358,7.5,7.5,7.5h206.216c4.142,0,7.5-3.358,7.5-7.5
			C273.167,379.668,269.809,376.31,265.667,376.31z"/>
	</g>
</g>
<g>
	<g>
		<path d="M321.99,126.831c-38.913-38.913-102.229-38.915-141.143,0c-15.372,15.371-25.117,34.869-28.184,56.385
			c-2.963,20.794,0.777,42.412,10.533,60.871c1.935,3.662,6.474,5.063,10.135,3.126c3.662-1.936,5.062-6.473,3.126-10.135
			c-8.289-15.683-11.465-34.061-8.945-51.746c2.604-18.276,10.883-34.838,23.94-47.895c33.064-33.064,86.864-33.065,119.93,0
			c33.065,33.065,33.065,86.865,0,119.93c-33.066,33.065-86.865,33.064-119.93,0c-2.929-2.929-7.678-2.929-10.606,0
			c-2.929,2.929-2.929,7.678,0,10.606c18.822,18.823,43.885,29.189,70.572,29.189c26.686,0,51.749-10.366,70.571-29.189
			C360.903,229.061,360.903,165.744,321.99,126.831z"/>
	</g>
</g>
<g>
	<g>
		<path d="M504.443,413.939L388.281,297.777c-2.929-2.929-7.678-2.929-10.606,0l-7.638,7.638l-18.275-18.275
			c47.269-52.792,45.555-134.219-5.153-184.928c-4.594-4.594-9.445-8.777-14.499-12.567V51c0-4.142-3.358-7.5-7.5-7.5H7.5
			C3.358,43.5,0,46.858,0,51v19.283c0,4.142,3.358,7.5,7.5,7.5s7.5-3.358,7.5-7.5V58.5h302.11v21.384
			c-51.247-28.623-117.373-21.181-160.882,22.328c-8.848,8.848-16.198,18.634-22.063,29.038H59.45c-4.142,0-7.5,3.358-7.5,7.5
			c0,4.142,3.358,7.5,7.5,7.5h67.451c-8.684,21.218-11.73,44.219-9.142,66.69H59.45c-4.142,0-7.5,3.358-7.5,7.5
			c0,4.142,3.358,7.5,7.5,7.5h60.903c5.484,23.71,17.435,46.214,35.875,64.653c0.686,0.686,1.382,1.358,2.079,2.027H59.45
			c-4.142,0-7.5,3.358-7.5,7.5c0,4.142,3.358,7.5,7.5,7.5h117.586c22.45,14.89,48.415,22.339,74.382,22.339
			c22.679,0,45.356-5.68,65.692-17.038V409.5c0,4.142,3.358,7.5,7.5,7.5c4.142,0,7.5-3.358,7.5-7.5V305.16
			c3.096-2.322,6.116-4.79,9.045-7.414l18.275,18.275l-7.638,7.637c-1.407,1.406-2.197,3.314-2.197,5.303s0.79,3.897,2.197,5.303
			l116.163,116.163c4.873,4.873,11.352,7.557,18.244,7.557c6.892,0,13.371-2.684,18.244-7.557
			c4.873-4.873,7.557-11.352,7.557-18.243C512,425.292,509.316,418.813,504.443,413.939z M336.002,281.987
			c-46.639,46.638-122.527,46.64-169.168,0c-46.639-46.64-46.639-122.528,0-169.168c23.32-23.32,53.952-34.979,84.584-34.979
			c30.632,0,61.265,11.66,84.584,34.979C382.641,159.459,382.641,235.347,336.002,281.987z M493.836,439.821
			c-4.211,4.211-11.064,4.21-15.275,0l-110.859-110.86l7.635-7.635c0.001-0.001,0.002-0.002,0.003-0.002s0.002-0.002,0.002-0.003
			l7.635-7.635l110.859,110.859C498.047,428.757,498.047,435.609,493.836,439.821z"/>
	</g>
</g>
<g>
</g>
<g>
</g>
<g>
</g>
<g>
</g>
<g>
</g>
<g>
</g>
<g>
</g>
<g>
</g>
<g>
</g>
<g>
</g>
<g>
</g>
<g>
</g>
<g>
</g>
<g>
</g>
<g>
</g>
</svg>
