<svg height="512pt" viewBox="-16 0 512 512" width="512pt" xmlns="http://www.w3.org/2000/svg"><g fill="#00e9cc"><path d="m135.765625 40.078125h16.03125v15.03125h-16.03125zm0 0"/><path d="m167.828125 40.078125h16.03125v15.03125h-16.03125zm0 0"/><path d="m199.890625 40.078125h16.03125v15.03125h-16.03125zm0 0"/><path d="m136.265625 120.234375h47.09375v47.09375h-47.09375zm0 0"/><path d="m136.265625 192.375h47.09375v47.09375h-47.09375zm0 0"/><path d="m136.265625 264.515625h47.09375v47.09375h-47.09375zm0 0"/></g><path d="m315.222656 0h-219.035156v344.671875h-96.1875v47.09375h47.09375v-32.0625h189.761719l8.519531 8.515625-8.519531 8.515625h-173.230469v15.03125h32.5625v40.078125h191.875v-15.03125h-176.84375v-25.046875h131.863281l23.542969-23.546875-23.542969-23.546875h-131.863281v-329.640625h193.375v88.171875h95.1875v-18.644531zm-283.160156 376.734375h-17.03125v-17.03125h17.03125zm287.5625-288.5625v-62.515625l62.515625 62.515625zm0 0"/><path d="m384.75 119.734375h15.03125v224.4375h-15.03125zm0 0"/><path d="m199.890625 120.234375h160.3125v15.03125h-160.3125zm0 0"/><path d="m199.890625 80.15625h88.171875v15.03125h-88.171875zm0 0"/><path d="m135.765625 80.15625h48.09375v15.03125h-48.09375zm0 0"/><path d="m199.890625 152.296875h88.171875v15.03125h-88.171875zm0 0"/><path d="m199.890625 192.375h160.3125v15.03125h-160.3125zm0 0"/><path d="m199.890625 224.4375h88.171875v15.03125h-88.171875zm0 0"/><path d="m199.890625 264.515625h160.3125v15.03125h-160.3125zm0 0"/><path d="m199.890625 296.578125h88.171875v15.03125h-88.171875zm0 0"/><path d="m392.265625 336.65625c-48.34375 0-87.671875 39.332031-87.671875 87.671875 0 48.34375 39.328125 87.671875 87.671875 87.671875s87.671875-39.328125 87.671875-87.671875c0-48.339844-39.328125-87.671875-87.671875-87.671875zm0 0" fill="#00e9cc"/><path d="m392.265625 479.9375c-30.664063 0-55.609375-24.945312-55.609375-55.609375s24.945312-55.609375 55.609375-55.609375 55.609375 24.945312 55.609375 55.609375-24.945312 55.609375-55.609375 55.609375zm0-96.1875c-22.375 0-40.578125 18.203125-40.578125 40.578125s18.203125 40.578125 40.578125 40.578125 40.578125-18.203125 40.578125-40.578125-18.203125-40.578125-40.578125-40.578125zm0 0"/><path d="m381.550781 445.675781-10.628906-10.628906 13.828125-13.832031v-20.933594h15.03125v27.160156zm0 0"/></svg>