<svg height="512" viewBox="0 0 64 64" width="512" xmlns="http://www.w3.org/2000/svg"><g id="Layer_7"><path d="m16 21a2 2 0 0 0 2-2h-4a2 2 0 0 0 2 2z"/><path d="m5 33v24h22v-24zm9.707 18.293a2.414 2.414 0 0 1 -3.414 0l-3.293-3.293 3-3 2 2 8-8 3 3z"/><path d="m3 29h26v2h-26z"/><path d="m3 59h26v2h-26z"/><path d="m10 24h2v3h8v-3h2v3h2v-3a5.008 5.008 0 0 0 -4.01-4.9 3.991 3.991 0 0 1 -7.98 0 5.008 5.008 0 0 0 -4.01 4.9v3h2z"/><path d="m22 13h1a1 1 0 0 0 0-2h-1z"/><path d="m9 13h1v-2h-1a1 1 0 0 0 0 2z"/><path d="m18 6a1 1 0 0 1 2 0 3.006 3.006 0 0 0 2 2.829v-2.829a3 3 0 0 0 -3-3h-6a3 3 0 0 0 -3 3v3h3c1.975 0 5-1.609 5-3z"/><path d="m20 13v-3a5.028 5.028 0 0 1 -1.253-1.371 9.353 9.353 0 0 1 -5.747 2.371h-1v2a4 4 0 0 0 8 0z"/><path d="m41 13h1v-2h-1a1 1 0 0 0 0 2z"/><path d="m54 13h1a1 1 0 0 0 0-2h-1z"/><path d="m50 6a1 1 0 0 1 2 0 3.006 3.006 0 0 0 2 2.829v-2.829a3 3 0 0 0 -3-3h-6a3 3 0 0 0 -3 3v3h3c1.975 0 5-1.609 5-3z"/><path d="m42 24h2v3h8v-3h2v3h2v-3a5.008 5.008 0 0 0 -4.01-4.9 3.991 3.991 0 0 1 -7.98 0 5.008 5.008 0 0 0 -4.01 4.9v3h2z"/><path d="m52 13v-3a5.028 5.028 0 0 1 -1.253-1.371 9.353 9.353 0 0 1 -5.747 2.371h-1v2a4 4 0 0 0 8 0z"/><path d="m48 21a2 2 0 0 0 2-2h-4a2 2 0 0 0 2 2z"/><path d="m37 33v24h22v-24zm18 16-3 3-4-4-4 4-3-3 4-4-4-4 3-3 4 4 4-4 3 3-4 4z"/><path d="m35 29h26v2h-26z"/><path d="m35 59h26v2h-26z"/></g></svg>