<svg height="512px" viewBox="0 0 64 64" width="512px" xmlns="http://www.w3.org/2000/svg"><g id="Cyber_security" data-name="Cyber security"><path d="m42 32h-2v-3h-3v-2h3a2 2 0 0 1 2 2z"/><path d="m27 49h-3a2 2 0 0 1 -2-2v-3h2v3h3z"/><path d="m6 10a4 4 0 1 1 4-4 4 4 0 0 1 -4 4zm0-6a2 2 0 1 0 2 2 2 2 0 0 0 -2-2z"/><path d="m12 5h2v2h-2z"/><path d="m16 5h13v2h-13z"/><path d="m58 10a4 4 0 1 1 4-4 4 4 0 0 1 -4 4zm0-6a2 2 0 1 0 2 2 2 2 0 0 0 -2-2z"/><path d="m50 5h2v2h-2z"/><path d="m58 24a4 4 0 1 1 4-4 4 4 0 0 1 -4 4zm0-6a2 2 0 1 0 2 2 2 2 0 0 0 -2-2z"/><path d="m50 19h2v2h-2z"/><path d="m58 47a4 4 0 1 1 4-4 4 4 0 0 1 -4 4zm0-6a2 2 0 1 0 2 2 2 2 0 0 0 -2-2z"/><path d="m48 42h4v2h-4z"/><path d="m6 24a4 4 0 1 1 4-4 4 4 0 0 1 -4 4zm0-6a2 2 0 1 0 2 2 2 2 0 0 0 -2-2z"/><path d="m12 19h2v2h-2z"/><path d="m6 47a4 4 0 1 1 4-4 4 4 0 0 1 -4 4zm0-6a2 2 0 1 0 2 2 2 2 0 0 0 -2-2z"/><path d="m12 42h4v2h-4z"/><path d="m35 5h13v2h-13z"/><path d="m6 62a4 4 0 1 1 4-4 4 4 0 0 1 -4 4zm0-6a2 2 0 1 0 2 2 2 2 0 0 0 -2-2z"/><path d="m12 57h2v2h-2z"/><path d="m16 57h13v2h-13z"/><path d="m58 62a4 4 0 1 1 4-4 4 4 0 0 1 -4 4zm0-6a2 2 0 1 0 2 2 2 2 0 0 0 -2-2z"/><path d="m50 57h2v2h-2z"/><path d="m35 57h13v2h-13z"/><path d="m31 5h2v2h-2z"/><path d="m31 57h2v2h-2z"/><path d="m41 23v-3a9 9 0 0 0 -18 0v3a5.006 5.006 0 0 0 -5 5v20a5.006 5.006 0 0 0 5 5h18a5.006 5.006 0 0 0 5-5v-20a5.006 5.006 0 0 0 -5-5zm-16-3a7 7 0 0 1 14 0v3h-14zm19 28a3 3 0 0 1 -3 3h-18a3 3 0 0 1 -3-3v-20a3 3 0 0 1 3-3h18a3 3 0 0 1 3 3z"/><path d="m16 19h5v2h-5z"/><path d="m43 19h5v2h-5z"/><path d="m48 31h10v2h-10z"/><path d="m60 31h2v2h-2z"/><path d="m6 31h10v2h-10z"/><path d="m2 31h2v2h-2z"/><path d="m33 41h2v-2h-2v-3.142a4 4 0 1 0 -2 0v11.142h2v-2h2v-2h-2zm-3-9a2 2 0 1 1 2 2 2 2 0 0 1 -2-2z"/></g></svg>