<?xml version="1.0" encoding="UTF-8"?>
<svg xmlns="http://www.w3.org/2000/svg" viewBox="0 0 64 64" width="512" height="512"><g id="Layer_26"><path d="M32.625,37.96A15.981,15.981,0,0,1,38,9.527V9a2,2,0,0,0-2-2H34V8a3,3,0,0,1-3,3H19a3,3,0,0,1-3-3V7H14a2,2,0,0,0-2,2V55a2,2,0,0,0,2,2H36a2,2,0,0,0,2-2V40.475c-.225-.059-.451-.112-.675-.18l-3.943,1.629A.979.979,0,0,1,33,42a1,1,0,0,1-.979-1.208ZM20,42H18V40h2Zm5,12a2,2,0,1,1,2-2A2,2,0,0,1,25,54Zm5-12H22V40h8Z"/><path d="M40,55a4,4,0,0,1-4,4H14a4,4,0,0,1-4-4V9a4,4,0,0,1,4-4h3a1,1,0,0,1,1,1V8a1,1,0,0,0,1,1H31a1,1,0,0,0,1-1V6a1,1,0,0,1,1-1h3a4,4,0,0,1,4,4v.139A15.9,15.9,0,0,1,42,9V8a5.006,5.006,0,0,0-5-5H13A5.006,5.006,0,0,0,8,8V56a5.006,5.006,0,0,0,5,5H37a5.006,5.006,0,0,0,5-5V41a15.749,15.749,0,0,1-2-.137ZM20,5H30V7H20Z"/><path d="M42,11a14,14,0,0,0-7.706,25.683,1,1,0,0,1,.427,1.042l-.347,1.626L36.9,38.308a.991.991,0,0,1,.7-.026A14,14,0,1,0,42,11Zm0,24a2,2,0,1,1,2-2A2,2,0,0,1,42,35Zm2.879-9.879A3,3,0,0,0,44,27.243V28H40v-.757a7.829,7.829,0,0,1,2.293-5.536A2.414,2.414,0,0,0,43,20a2,2,0,0,0-4,0v1H35V20a6,6,0,0,1,12,0A7.242,7.242,0,0,1,44.879,25.121Z"/></g></svg>
